<svg width="16" height="16" viewBox="0 0 16 16" fill="none" xmlns="http://www.w3.org/2000/svg">
<path d="M15.6911 8.18025C15.6924 7.63193 15.6458 7.08455 15.552 6.54431H8.0083V9.62805H12.3333C12.2444 10.1204 12.0567 10.5897 11.7815 11.0076C11.5063 11.4255 11.1494 11.7833 10.7322 12.0595L13.3087 14.0594C14.8199 12.6791 15.6911 10.6137 15.6911 8.18025Z" fill="#4285F4"/>
<path d="M13.3067 14.0675L10.7301 12.0676C10.1089 12.4658 9.40515 12.7171 8.67227 12.8026C7.93938 12.888 7.19668 12.8052 6.50058 12.5606C5.80448 12.3159 5.1733 11.9158 4.65501 11.3906C4.13671 10.8655 3.74495 10.2291 3.50948 9.52985L0.851074 11.5911C1.51804 12.9173 2.54058 14.0319 3.80448 14.8105C5.06839 15.5891 6.52386 16.0009 8.00831 16C10.1678 16 11.9877 15.2904 13.3251 14.0675H13.3067Z" fill="#34A853"/>
<path d="M3.50972 6.46454L0.85132 4.40326C0.291533 5.5186 0 6.74927 0 7.99721C0 9.24514 0.291533 10.4758 0.85132 11.5912L3.50972 9.52988C3.17645 8.53527 3.17645 7.45914 3.50972 6.46454Z" fill="#FBBC04"/>
<path d="M8.00831 0.000501674C6.52343 -3.06779e-05 5.06768 0.4124 3.80374 1.19171C2.53979 1.97102 1.51747 3.08649 0.851074 4.41344L3.50948 6.47474C3.81972 5.52255 4.42055 4.69149 5.22749 4.09839C6.03444 3.50529 7.00692 3.17994 8.00831 3.16809C9.14837 3.15193 10.2494 3.58281 11.0757 4.36846L13.3599 2.08427C11.9121 0.72455 9.99435 -0.0221728 8.00831 0.000501674Z" fill="#EA4335"/>
</svg>
